<?xml version="1.0" encoding="utf-8"?>
<!-- Generator: Adobe Illustrator 21.0.2, SVG Export Plug-In . SVG Version: 6.00 Build 0)  -->
<!DOCTYPE svg PUBLIC "-//W3C//DTD SVG 1.1//EN" "http://www.w3.org/Graphics/SVG/1.1/DTD/svg11.dtd">
<svg version="1.1" id="Layer_1" xmlns="http://www.w3.org/2000/svg" xmlns:xlink="http://www.w3.org/1999/xlink" x="0px" y="0px"
	 viewBox="0 0 250.5 111.4" enable-background="new 0 0 250.5 111.4" xml:space="preserve">
<g>
	<g display="none">
		<g display="inline">
			<path fill="#5BBFBE" d="M322.3,25.9v59.7h-9.2l-24.4-48.6v48.6h-7V30.2c0-0.6,0.1-1.1,0.3-1.7c0.2-0.5,0.5-0.9,0.8-1.4
				c0.4-0.5,0.9-0.9,1.6-1.2c0.4-0.1,0.8-0.3,1.2-0.4c0.5-0.1,1-0.2,1.6-0.2c0.6,0,1.1,0.1,1.6,0.2c0.5,0.1,0.9,0.2,1.3,0.4
				c0.5,0.2,0.9,0.5,1.2,0.9c0.3,0.3,0.6,0.7,0.8,1c0,0,0.2,0.3,0.5,1c0.3,0.6,0.7,1.5,1.3,2.6c0.5,1.1,1.2,2.4,1.9,3.9
				c0.7,1.5,1.5,3.1,2.4,4.8c0.9,1.7,1.8,3.6,2.7,5.5c0.9,1.9,1.9,3.8,2.8,5.8c3.4,6.9,7.2,14.6,11.5,23.3V25.9H322.3z"/>
			<path fill="#5BBFBE" d="M334,26.1h34.3v6.6h-27.1v19.1h24.4V58h-24.4v21.2h27.7v6.4H334V26.1z"/>
			<path fill="#5BBFBE" d="M421,26.1c0.3,0.1,0.6,0.2,0.9,0.5c0.3,0.2,0.6,0.6,0.8,1c0.2,0.4,0.4,1,0.4,1.8c0,0.8-0.1,1.3-0.4,1.8
				c-0.2,0.4-0.5,0.8-0.9,1c-0.3,0.2-0.6,0.4-0.9,0.5c-0.3,0.1-0.5,0.1-0.6,0.1h-0.1h-16.4v52.9H396V32.7h-16.4h-0.1
				c-0.1,0-0.4,0-0.7-0.1c-0.3-0.1-0.6-0.2-0.9-0.5c-0.3-0.2-0.6-0.6-0.8-1c-0.2-0.4-0.4-1-0.4-1.8c0-0.8,0.1-1.4,0.4-1.8
				c0.2-0.4,0.5-0.8,0.9-1c0.3-0.2,0.6-0.4,0.9-0.5c0.3-0.1,0.5-0.1,0.6-0.1h0.1h40.5h0.1C420.4,26,420.6,26,421,26.1z"/>
			<path fill="#5BBFBE" d="M430.8,26.1h7.1l11,43.8l1.1,0l11-43.8h7.2l-15.1,59.6h-7.4L430.8,26.1z"/>
			<path fill="#5BBFBE" d="M504.4,86c-2.2,0-4.3-0.2-6.2-0.5c-2-0.4-3.8-0.9-5.6-1.6c-3.4-1.4-6.4-3.6-9-6.6c-2.3-2.9-4-6-5-9.5
				c-1.1-3.5-1.7-7.5-1.7-11.8c0-3.9,0.5-7.5,1.4-10.9c1-3.3,2.4-6.4,4.3-9.1c1.2-1.8,2.6-3.3,4.1-4.6c1.5-1.3,3.2-2.4,5-3.3
				c3.7-1.8,7.9-2.6,12.8-2.6c5,0,9.5,0.8,13.2,2.5c3.7,1.6,6.8,4,9.2,7.3c1.9,2.6,3.3,5.5,4.3,8.7c0.9,3.3,1.4,6.9,1.4,10.9
				c0,2.1-0.1,4.2-0.4,6.1c-0.3,2-0.7,3.8-1.2,5.6c-1.1,3.5-2.7,6.7-4.9,9.6c-1.3,1.7-2.7,3.1-4.2,4.4c-1.5,1.2-3.2,2.3-5,3.1
				C513.3,85.2,509.2,86,504.4,86z M505.1,31.6c-6.1,0-11.1,2.1-15,6.3c-3.8,4.2-5.8,10.3-5.8,18.5c0,6.5,1.6,12,4.9,16.5
				c3.3,4.5,8.7,6.8,16.1,6.8c7.1,0,12.2-2.6,15.4-7.7c3.1-5,4.7-10.8,4.7-17.3c0-6.9-1.8-12.5-5.4-16.8
				C516.3,33.8,511.4,31.6,505.1,31.6z"/>
			<path fill="#5BBFBE" d="M585.6,26.1c0.3,0.1,0.6,0.2,0.9,0.5c0.3,0.2,0.6,0.6,0.8,1c0.2,0.4,0.4,1,0.4,1.8c0,0.8-0.1,1.3-0.4,1.8
				c-0.2,0.4-0.5,0.8-0.9,1c-0.3,0.2-0.6,0.4-0.9,0.5c-0.3,0.1-0.5,0.1-0.6,0.1h-0.1h-16.4v52.9h-7.8V32.7h-16.4h-0.1
				c-0.1,0-0.4,0-0.7-0.1c-0.3-0.1-0.6-0.2-0.9-0.5c-0.3-0.2-0.6-0.6-0.8-1c-0.2-0.4-0.4-1-0.4-1.8c0-0.8,0.1-1.4,0.4-1.8
				c0.2-0.4,0.5-0.8,0.9-1s0.6-0.4,0.9-0.5c0.3-0.1,0.5-0.1,0.6-0.1h0.1h40.5h0.1C585,26,585.3,26,585.6,26.1z"/>
			<path fill="#5BBFBE" d="M597.4,26.1h34.3v6.6h-27.1v19.1H629V58h-24.4v21.2h27.7v6.4h-34.9V26.1z"/>
		</g>
	</g>
	<g>
		<path fill="#5BBFBE" d="M107.8,47L64.5,3.6C62.1,1.3,59,0,55.7,0c-3.3,0-6.4,1.3-8.7,3.6L3.6,47c-4.8,4.8-4.8,12.7,0,17.5
			L47,107.8c2.3,2.3,5.4,3.6,8.7,3.6c3.3,0,6.4-1.3,8.8-3.6l21.9-21.9l-6.5-6.5l-21.9,21.9c-0.6,0.6-1.4,0.9-2.2,0.9
			c-0.8,0-1.6-0.3-2.2-0.9L10.2,57.9c-1.2-1.2-1.2-3.2,0-4.4l43.3-43.3c1.2-1.2,3.2-1.2,4.4,0l43.3,43.3c0.6,0.6,0.9,1.4,0.9,2.2
			c0,0.8-0.3,1.6-0.9,2.2l-9.7,9.7l6.5,6.5l9.7-9.7C112.6,59.6,112.6,51.8,107.8,47z"/>
		<g>
			<path fill="#5BBFBE" d="M146.3,79.4l-21.9,21.9c-0.6,0.6-1.4,0.9-2.2,0.9c-0.8,0-1.6-0.3-2.2-0.9L76.6,57.9
				c-1.2-1.2-1.2-3.2,0-4.4l9.7-9.7l-6.5-6.5L70.1,47c-2.3,2.3-3.6,5.4-3.6,8.7c0,3.3,1.3,6.4,3.6,8.8l43.3,43.3
				c2.3,2.3,5.4,3.6,8.8,3.6c3.3,0,6.4-1.3,8.7-3.6l21.9-21.9L146.3,79.4z"/>
			<path fill="#5BBFBE" d="M174.3,47L130.9,3.6c-2.3-2.3-5.4-3.6-8.7-3.6c-3.3,0-6.4,1.3-8.7,3.6L91.5,25.5l6.5,6.5L120,10.1
				c1.2-1.2,3.3-1.2,4.4,0l43.3,43.3c0.6,0.6,0.9,1.4,0.9,2.2c0,0.8-0.3,1.6-0.9,2.2l-9.7,9.7l6.5,6.5l9.7-9.7
				c2.3-2.3,3.6-5.4,3.6-8.7C177.9,52.4,176.6,49.3,174.3,47z"/>
		</g>
		<polygon fill="#5BBFBE" points="177.9,38.4 198.8,72.7 250.5,4.2 199.2,53.4 		"/>
		<g>
			<path fill="#5BBFBE" d="M186.4,10.1c1.2-1.2,3.2-1.2,4.4,0l23.6,23.6l6.7-6.4L197.4,3.6C195.1,1.3,192,0,188.6,0
				c-3.3,0-6.4,1.3-8.7,3.6L158,25.5l6.5,6.5L186.4,10.1z"/>
			<path fill="#5BBFBE" d="M240.7,47l-10.2-10.2l-5.6,7.4l9.3,9.3c0.6,0.6,0.9,1.4,0.9,2.2c0,0.8-0.3,1.6-0.9,2.2l-43.3,43.3
				c-0.6,0.6-1.4,0.9-2.2,0.9c-0.8,0-1.6-0.3-2.2-0.9l-43.3-43.3c-0.6-0.6-0.9-1.4-0.9-2.2c0-0.8,0.3-1.6,0.9-2.2l9.7-9.7l-6.5-6.5
				l-9.7,9.7c-4.8,4.8-4.8,12.7,0,17.5l43.3,43.3c2.3,2.3,5.4,3.6,8.7,3.6c3.3,0,6.4-1.3,8.7-3.6l43.3-43.3
				C245.6,59.6,245.6,51.8,240.7,47z"/>
		</g>
	</g>
</g>
</svg>
