<svg xmlns="http://www.w3.org/2000/svg" viewBox="0 0 200 88.95"><title>netvote-logo-horiz</title><path d="M86.08,37.49,51.47,2.88a9.91,9.91,0,0,0-14,0L2.89,37.49a9.9,9.9,0,0,0,0,14L37.5,86.07a9.91,9.91,0,0,0,14,0L69,68.58l-5.22-5.21L46.25,80.85a2.54,2.54,0,0,1-3.54,0L8.11,46.25a2.51,2.51,0,0,1,0-3.54L42.71,8.1a2.57,2.57,0,0,1,3.54,0L80.86,42.71a2.51,2.51,0,0,1,0,3.54L73.09,54l5.21,5.22,7.78-7.77A9.9,9.9,0,0,0,86.08,37.49Z" style="fill:#fff"/><path d="M116.82,63.37,99.33,80.85a2.54,2.54,0,0,1-3.54,0L61.18,46.25a2.53,2.53,0,0,1,0-3.55L69,34.93l-5.22-5.22L56,37.49a9.91,9.91,0,0,0,0,14L90.57,86.07a9.91,9.91,0,0,0,14,0L122,68.58Z" style="fill:#fff"/><path d="M139.15,37.49,104.54,2.88a9.91,9.91,0,0,0-14,0L73.08,20.37l5.22,5.22L95.79,8.1a2.57,2.57,0,0,1,3.54,0l34.61,34.61a2.51,2.51,0,0,1,0,3.54L126.16,54l5.21,5.22,7.78-7.78a9.91,9.91,0,0,0,0-14Z" style="fill:#fff"/><polygon points="142.03 30.68 158.73 58.02 200 3.34 159.09 42.68 142.03 30.68" style="fill:#60bfbd"/><path d="M148.86,8.1a2.56,2.56,0,0,1,3.54,0l18.84,18.84,5.32-5.11L157.62,2.88a9.91,9.91,0,0,0-14,0L126.16,20.37l5.21,5.22Z" style="fill:#fff"/><path d="M192.23,37.49l-8.18-8.18-4.49,5.95L187,42.71a2.51,2.51,0,0,1,0,3.54L152.4,80.85a2.54,2.54,0,0,1-3.54,0l-34.61-34.6a2.51,2.51,0,0,1,0-3.54L122,34.93l-5.21-5.22L109,37.49a9.9,9.9,0,0,0,0,14l34.61,34.6a9.91,9.91,0,0,0,14,0l34.61-34.6A9.9,9.9,0,0,0,192.23,37.49Z" style="fill:#fff"/></svg>