<?xml version="1.0" encoding="utf-8"?>
<!-- Generator: Adobe Illustrator 21.0.2, SVG Export Plug-In . SVG Version: 6.00 Build 0)  -->
<!DOCTYPE svg PUBLIC "-//W3C//DTD SVG 1.1//EN" "http://www.w3.org/Graphics/SVG/1.1/DTD/svg11.dtd">
<svg version="1.1" id="netvote" xmlns="http://www.w3.org/2000/svg" xmlns:xlink="http://www.w3.org/1999/xlink" x="0px" y="0px"
	 viewBox="0 0 350.7 197.7" enable-background="new 0 0 350.7 197.7" xml:space="preserve">
<g id="mark">
	<path fill="#FFFFFF" d="M157.9,47L114.5,3.6c-2.3-2.3-5.4-3.6-8.7-3.6c-3.3,0-6.4,1.3-8.7,3.6L53.7,47c-4.8,4.8-4.8,12.7,0,17.5
		l43.3,43.3c2.3,2.3,5.4,3.6,8.7,3.6c3.3,0,6.4-1.3,8.8-3.6l21.9-21.9l-6.5-6.5L108,101.3c-0.6,0.6-1.4,0.9-2.2,0.9
		c-0.8,0-1.6-0.3-2.2-0.9L60.2,57.9c-1.2-1.2-1.2-3.2,0-4.4l43.3-43.3c1.2-1.2,3.2-1.2,4.4,0l43.3,43.3c0.6,0.6,0.9,1.4,0.9,2.2
		c0,0.8-0.3,1.6-0.9,2.2l-9.7,9.7l6.5,6.5l9.7-9.7C162.7,59.6,162.7,51.8,157.9,47z"/>
	<g>
		<path fill="#FFFFFF" d="M196.4,79.4l-21.9,21.9c-0.6,0.6-1.4,0.9-2.2,0.9c-0.8,0-1.6-0.3-2.2-0.9l-43.3-43.3
			c-1.2-1.2-1.2-3.2,0-4.4l9.7-9.7l-6.5-6.5l-9.7,9.7c-2.3,2.3-3.6,5.4-3.6,8.7c0,3.3,1.3,6.4,3.6,8.8l43.3,43.3
			c2.3,2.3,5.4,3.6,8.8,3.6c3.3,0,6.4-1.3,8.7-3.6l21.9-21.9L196.4,79.4z"/>
		<path fill="#FFFFFF" d="M224.4,47L181,3.6c-2.3-2.3-5.4-3.6-8.8-3.6c-3.3,0-6.4,1.3-8.7,3.6l-21.9,21.9l6.5,6.5L170,10.1
			c1.2-1.2,3.3-1.2,4.4,0l43.3,43.3c0.6,0.6,0.9,1.4,0.9,2.2c0,0.8-0.3,1.6-0.9,2.2l-9.7,9.7l6.5,6.5l9.7-9.7
			c2.3-2.3,3.6-5.4,3.6-8.7C228,52.4,226.7,49.3,224.4,47z"/>
	</g>
	<polygon fill="#FFFFFF" points="228,38.4 248.9,72.7 300.6,4.2 249.3,53.4 	"/>
	<g>
		<path fill="#FFFFFF" d="M236.5,10.1c1.2-1.2,3.2-1.2,4.4,0l23.6,23.6l6.7-6.4L247.5,3.6C245.2,1.3,242,0,238.7,0
			c-3.3,0-6.4,1.3-8.7,3.6l-21.9,21.9l6.5,6.5L236.5,10.1z"/>
		<path fill="#FFFFFF" d="M290.8,47l-10.2-10.2l-5.6,7.4l9.3,9.3c0.6,0.6,0.9,1.4,0.9,2.2c0,0.8-0.3,1.6-0.9,2.2L241,101.3
			c-0.6,0.6-1.4,0.9-2.2,0.9c-0.8,0-1.6-0.3-2.2-0.9l-43.3-43.3c-0.6-0.6-0.9-1.4-0.9-2.2c0-0.8,0.3-1.6,0.9-2.2l9.7-9.7l-6.5-6.5
			l-9.7,9.7c-4.8,4.8-4.8,12.7,0,17.5l43.3,43.3c2.3,2.3,5.4,3.6,8.7,3.6c3.3,0,6.4-1.3,8.7-3.6l43.3-43.3
			C295.6,59.6,295.6,51.8,290.8,47z"/>
	</g>
</g>
<g id="text">
	<path fill="#FFFFFF" d="M40.6,137.7v59.7h-9.2L7,148.8v48.6H0v-55.4c0-0.6,0.1-1.1,0.3-1.7c0.2-0.5,0.5-0.9,0.8-1.4
		c0.4-0.5,0.9-0.9,1.6-1.2c0.4-0.1,0.8-0.3,1.2-0.4c0.5-0.1,1-0.2,1.6-0.2c0.6,0,1.1,0.1,1.6,0.2c0.5,0.1,0.9,0.2,1.3,0.4
		c0.5,0.2,0.9,0.5,1.2,0.9c0.3,0.3,0.6,0.7,0.8,1c0,0,0.2,0.3,0.5,1c0.3,0.6,0.7,1.5,1.3,2.6c0.5,1.1,1.2,2.4,1.9,3.9
		c0.7,1.5,1.5,3.1,2.4,4.8c0.9,1.7,1.8,3.6,2.7,5.5c0.9,1.9,1.9,3.8,2.8,5.8c3.4,6.9,7.2,14.6,11.5,23.3v-48.6H40.6z"/>
	<path fill="#FFFFFF" d="M52.3,137.8h34.3v6.6H59.6v19.1h24.4v6.3H59.6v21.2h27.7v6.4H52.3V137.8z"/>
	<path fill="#FFFFFF" d="M139.3,137.8c0.3,0.1,0.6,0.2,0.9,0.5c0.3,0.2,0.6,0.6,0.8,1c0.2,0.4,0.4,1,0.4,1.8c0,0.8-0.1,1.3-0.4,1.8
		c-0.2,0.4-0.5,0.8-0.9,1c-0.3,0.2-0.6,0.4-0.9,0.5c-0.3,0.1-0.5,0.1-0.6,0.1h-0.1h-16.4v52.9h-7.8v-52.9H97.9h-0.1
		c-0.1,0-0.4,0-0.7-0.1c-0.3-0.1-0.6-0.2-0.9-0.5c-0.3-0.2-0.6-0.6-0.8-1c-0.2-0.4-0.4-1-0.4-1.8c0-0.8,0.1-1.4,0.4-1.8
		c0.2-0.4,0.5-0.8,0.9-1c0.3-0.2,0.6-0.4,0.9-0.5c0.3-0.1,0.5-0.1,0.6-0.1h0.1h40.5h0.1C138.7,137.7,139,137.7,139.3,137.8z"/>
	<path fill="#FFFFFF" d="M149.1,137.8h7.1l11,43.8l1.1,0l11-43.8h7.2l-15.1,59.6h-7.4L149.1,137.8z"/>
	<path fill="#FFFFFF" d="M222.7,197.7c-2.2,0-4.3-0.2-6.2-0.5c-2-0.4-3.8-0.9-5.6-1.6c-3.4-1.4-6.4-3.6-9-6.6c-2.3-2.9-4-6-5-9.5
		c-1.1-3.5-1.7-7.5-1.7-11.8c0-3.9,0.5-7.5,1.4-10.9c1-3.3,2.4-6.4,4.3-9.1c1.2-1.8,2.6-3.3,4.1-4.6c1.5-1.3,3.2-2.4,5-3.3
		c3.7-1.8,7.9-2.6,12.8-2.6c5,0,9.5,0.8,13.2,2.5c3.7,1.6,6.8,4,9.2,7.3c1.9,2.6,3.3,5.5,4.3,8.7c0.9,3.3,1.4,6.9,1.4,10.9
		c0,2.1-0.1,4.2-0.4,6.1c-0.3,2-0.7,3.8-1.2,5.6c-1.1,3.5-2.7,6.7-4.9,9.6c-1.3,1.7-2.7,3.1-4.2,4.4c-1.5,1.2-3.2,2.3-5,3.1
		C231.7,196.9,227.5,197.7,222.7,197.7z M223.4,143.3c-6.1,0-11.1,2.1-15,6.3c-3.8,4.2-5.8,10.3-5.8,18.5c0,6.5,1.6,12,4.9,16.5
		c3.3,4.5,8.7,6.8,16.1,6.8c7.1,0,12.2-2.6,15.4-7.7c3.1-5,4.7-10.8,4.7-17.3c0-6.9-1.8-12.5-5.4-16.8
		C234.6,145.5,229.7,143.3,223.4,143.3z"/>
	<path fill="#FFFFFF" d="M303.9,137.8c0.3,0.1,0.6,0.2,0.9,0.5c0.3,0.2,0.6,0.6,0.8,1c0.2,0.4,0.4,1,0.4,1.8c0,0.8-0.1,1.3-0.4,1.8
		c-0.2,0.4-0.5,0.8-0.9,1c-0.3,0.2-0.6,0.4-0.9,0.5c-0.3,0.1-0.5,0.1-0.6,0.1h-0.1h-16.4v52.9h-7.8v-52.9h-16.4h-0.1
		c-0.1,0-0.4,0-0.7-0.1c-0.3-0.1-0.6-0.2-0.9-0.5c-0.3-0.2-0.6-0.6-0.8-1c-0.2-0.4-0.4-1-0.4-1.8c0-0.8,0.1-1.4,0.4-1.8
		c0.2-0.4,0.5-0.8,0.9-1c0.3-0.2,0.6-0.4,0.9-0.5c0.3-0.1,0.5-0.1,0.6-0.1h0.1h40.5h0.1C303.4,137.7,303.6,137.7,303.9,137.8z"/>
	<path fill="#FFFFFF" d="M315.7,137.8H350v6.6h-27.1v19.1h24.4v6.3h-24.4v21.2h27.7v6.4h-34.9V137.8z"/>
</g>
</svg>
