<svg xmlns="http://www.w3.org/2000/svg" xmlns:xlink="http://www.w3.org/1999/xlink" version="1.1" x="0px" y="0px" viewBox="0 0 100 100" style="enable-background:new 0 0 100 100;" xml:space="preserve"><style type="text/css">
	.st0{fill:none;}
</style><g><path class="st0" d="M19.1,38.5h17.4c1.1,0,2-0.9,2-2V19.2c0-1.1-0.9-2-2-2H19.1c-1.1,0-2,0.9-2,2v17.4   C17.1,37.7,18,38.5,19.1,38.5z"></path><path d="M58.9,68.7h8.2c1.1,0,2-0.9,2-2V46c0-1.1,0.9-2,2-2h8c1.1,0,2-0.9,2-2v-8.4c0-1.1,0.9-2,2-2h8.1c1.1,0,2-0.9,2-2V9   c0-1.1-0.9-2-2-2H80.9h-22c-1.1,0-2,0.9-2,2v8.6c0,1.1,0.9,2,2,2h8c1.1,0,2,0.9,2,2v20.5c0,1.1-0.9,2-2,2h-8c-1.1,0-2,0.9-2,2v20.4   c0,1.1-0.9,2-2,2h-22c-1.1,0-2-0.9-2-2v-7.8c0-1.1-0.9-2-2-2H8.9c-1.1,0-2,0.9-2,2v8.2c0,1.1,0.9,2,2,2H19c1.1,0,2,0.9,2,2v7.8   c0,1.1-0.9,2-2,2H8.9c-1.1,0-2,0.9-2,2V91c0,1.1,0.9,2,2,2H41c1.1,0,2-0.9,2-2v-8.6c0-1.1,0.9-2,2-2h10.1c1.1,0,2-0.9,2-2v-7.8   C56.9,69.6,57.8,68.7,58.9,68.7z"></path><path d="M91.1,68.3h-8.2c-1.1,0-2,0.9-2,2v8.2c0,1.1-0.9,2-2,2H59c-1.1,0-2,0.9-2,2V91c0,1.1,0.9,2,2,2h32.1c1.1,0,2-0.9,2-2V80.4   V70.3C93,69.2,92.1,68.3,91.1,68.3z"></path><path d="M91.1,44h-8.2c-1.1,0-2,0.9-2,2v8.2c0,1.1,0.9,2,2,2h8.2c1.1,0,2-0.9,2-2V46C93.1,44.9,92.2,44,91.1,44z"></path><path d="M8.9,48.7h37.8c1.1,0,2-0.9,2-2V9c0-1.1-0.9-2-2-2H8.9c-1.1,0-2,0.9-2,2v37.8C6.9,47.9,7.8,48.7,8.9,48.7z M17.1,19.2   c0-1.1,0.9-2,2-2h17.4c1.1,0,2,0.9,2,2v17.4c0,1.1-0.9,2-2,2H19.1c-1.1,0-2-0.9-2-2V19.2z"></path></g></svg>